# AST/ASF file generated using VICON BodyLanguage
# -----------------------------------------------
:version 1.10
:name VICON
:units
  mass 1.0
  length 0.45
  angle deg
:documentation
   .ast/.asf automatically generated from VICON data using
   VICON BodyBuilder and BodyLanguage model FoxedUp or BRILLIANT.MOD
:root
   order TX TY TZ RX RY RZ
   axis XYZ
   position 0 0 0  
   orientation 0 0 0 
:bonedata
  begin
     id 1 
     name lhipjoint
     direction 0.700308 -0.549349 0.455834 
     length 2.59063 
     axis 0 0 0  XYZ
  end
  begin
     id 2 
     name lfemur
     direction 0.34202 -0.939693 0  
     length 6.31066  
     axis 0 0 20  XYZ
    dof rx ry rz
    limits (-160.0 20.0)
           (-70.0 70.0)
           (-60.0 70.0)
  end
  begin
     id 3 
     name ltibia
     direction 0.34202 -0.939693 0   
     length 7.36093   
     axis 0 0 20   XYZ
    dof rx
    limits (-10.0 170.0)
  end
  begin
     id 4 
     name lfoot
     direction 0.0905332 -0.248738 0.96433   
     length 2.0233   
     axis -90 7.62852e-016 20   XYZ
    dof rx rz
    limits (-45.0 90.0)
           (-70.0 20.0)
  end
  begin
     id 5 
     name ltoes
     direction 1.53573e-011 -4.21855e-011 1   
     length 1.01524   
     axis -90 7.62852e-016 20   XYZ
    dof rx
    limits (-90.0 20.0)
  end
  begin
     id 6 
     name rhipjoint
     direction -0.61416 -0.607328 0.503944   
     length 2.34332  
     axis 0 0 0  XYZ 
  end
  begin
     id 7 
     name rfemur
     direction -0.34202 -0.939693 0   
     length 6.58548   
     axis 0 0 -20   XYZ
    dof rx ry rz
    limits (-160.0 20.0)
           (-70.0 70.0)
           (-70.0 60.0)
  end
  begin
     id 8 
     name rtibia
     direction -0.34202 -0.939693 0   
     length 7.20707   
     axis 0 0 -20   XYZ
    dof rx
    limits (-10.0 170.0)
 end
 begin
     id 9 
     name rfoot
     direction -0.136772 -0.375778 0.916561   
     length 1.92184  
     axis -90 -7.62852e-016 -20   XYZ
    dof rx rz
    limits (-45.0 90.0)
           (-20.0 70.0)
  end
  begin
     id 10 
     name rtoes
     direction -1.53535e-011 -4.21828e-011 1   
     length 0.951089   
     axis -90 -7.62852e-016 -20   XYZ
    dof rx
    limits (-90.0 20.0)
  end
  begin
     id 11 
     name lowerback
     direction -0.0444974 0.988086 -0.147332   
     length 1.9609   
     axis 0 0 0   XYZ
    dof rx ry rz
    limits (-20.0 45.0)
           (-30.0 30.0)
           (-30.0 30.0)
  end
  begin
     id 12 
     name upperback
     direction 0.00613146 0.999513 0.0306081   
     length 1.94944   
     axis 0 0 0   XYZ
    dof rx ry rz
    limits (-20.0 45.0)
           (-30.0 30.0)
           (-30.0 30.0)
  end
  begin
     id 13 
     name thorax
     direction 0.0254621 0.994518 0.101418   
     length 2.0119   
     axis 0 0 0   XYZ
    dof rx ry rz
    limits (-20.0 45.0)
           (-30.0 30.0)
           (-30.0 30.0)
  end
  begin
     id 14 
     name lowerneck
     direction 0.0168698 0.977854 0.208608   
     length 1.6375   
     axis 0 0 0   XYZ
    dof rx ry rz
    limits (-20.0 45.0)
           (-30.0 30.0)
           (-30.0 30.0)
  end
  begin
     id 15 
     name upperneck
     direction -0.0283988 0.989338 -0.142843   
     length 1.6851   
     axis 0 0 0   XYZ
    dof rx ry rz
    limits (-20.0 45.0)
           (-30.0 30.0)
           (-30.0 30.0)
  end
  begin
     id 16
     name head
     direction -0.0129422 0.99741 -0.0707489  
     length 1.69029  
     axis 0 0 0   XYZ
    dof rx ry rz
    limits (-20.0 45.0)
           (-30.0 30.0)
           (-30.0 30.0)
  end
  begin
     id 17 
     name lclavicle
     direction 0.820295 0.564628 -0.0911715  
     length 3.16484  
     axis 0 0 0   XYZ
    dof ry rz
    limits (-20.0 10.0)
           (0.0 20.0)
  end
  begin
     id 18 
     name lhumerus
     direction 1 -4.48969e-011 1.00186e-027   
     length 5.17853   
     axis 180 -30 -90   XYZ
    dof rx ry rz
    limits (-60.0 90.0)
           (-90.0 90.0)
           (-90.0 90.0)
  end
  begin
     id 19
     name lradius
     direction 1 -4.48966e-011 -1.52922e-027   
     length 3.40399   
     axis 180 -30 -90   XYZ
    dof rx
    limits (-10.0 170.0)
  end
  begin
     id 20
     name lwrist
     direction 1 -4.48981e-011 -3.80893e-027   
     length 1.70199   
     axis 1.1049e-015 90 90   XYZ
    dof ry
    limits (-180.0 0.0)
 end
  begin
     id 21 
     name lhand
     direction 1 -4.48957e-011 -7.61786e-027   
     length 0.708964   
     axis 4.86085e-015 90 90   XYZ
    dof rx rz
    limits (-90.0 90.0)
           (-45.0 45.0)
  end
  begin
     id 22 
     name lfingers
     direction 1 -4.48929e-011 -1.52357e-026   
     length 0.571585   
     axis 9.7217e-015 90 90   XYZ
    dof rx
    limits (0.0 90.0)
  end
  begin
     id 23
     name lthumb
     direction 0.707107 -6.34905e-011 0.707107   
     length 0.820685   
     axis -90 45 2.85299e-015   XYZ
    dof rx rz
    limits (-45.0 45.0)
           (-45.0 45.0)
  end
  begin
     id 24 
     name rclavicle
     direction -0.858602 0.463947 -0.218075   
     length 3.35137  
     axis 0 0 0   XYZ 
    dof ry rz
    limits (-10.0 20.0)
           (-20.0 0.0)
  end
  begin
     id 25 
     name rhumerus
     direction -1 -4.48969e-011 -1.98511e-027  
     length 5.42351   
     axis 180 30 90   XYZ
    dof rx ry rz
    limits (-90.0 60.0)
           (-90.0 90.0)
           (-90.0 90.0)
  end
  begin
     id 26 
     name rradius
     direction -1 -4.48961e-011 -2.82624e-027   
     length 3.42066   
     axis 180 30 90   XYZ
    dof rx
    limits (-10.0 170.0)
  end
  begin
     id 27 
     name rwrist
     direction -1 -4.48966e-011 -3.80893e-027   
     length 1.71033   
     axis 1.1049e-015 -90 -90   XYZ
    dof ry
    limits (-180.0 0.0)
  end
  begin
     id 28
     name rhand
     direction -1 -4.48964e-011 -7.61786e-027   
     length 0.743608   
     axis 4.86085e-015 -90 -90   XYZ
    dof rx rz
    limits (-90.0 90.0)
           (-45.0 45.0)
  end
  begin
     id 29
     name rfingers
     direction -1 -4.48961e-011 -1.52357e-026   
     length 0.599516   
     axis 9.7217e-015 -90 -90   XYZ
    dof rx
    limits (0.0 90.0)
  end
  begin
     id 30
     name rthumb
     direction -0.707107 -6.34913e-011 0.707107   
     length 0.860789   
     axis -90 -45 -2.85299e-015   XYZ
    dof rx rz
    limits (-45.0 45.0)
           (-45.0 45.0)
  end
:hierarchy
  begin
    root lhipjoint rhipjoint lowerback
    lhipjoint lfemur
    lfemur ltibia
    ltibia lfoot
    lfoot ltoes
    rhipjoint rfemur
    rfemur rtibia
    rtibia rfoot
    rfoot rtoes
    lowerback upperback
    upperback thorax
    thorax lowerneck lclavicle rclavicle
    lowerneck upperneck
    upperneck head
    lclavicle lhumerus
    lhumerus lradius
    lradius lwrist
    lwrist lhand lthumb
    lhand lfingers
    rclavicle rhumerus
    rhumerus rradius
    rradius rwrist
    rwrist rhand rthumb
    rhand rfingers
  end

#!OML:ASF E:\mmandel\Project 1\Capture day 1\Session 2\Subject.ASF
:FULLY-SPECIFIED
:DEGREES
281
root -4.37096 1.76693 -1.42124 -82.4603 73.3385 -0.430974
lowerback 48.4466 -5.95416 10.5246
upperback 15.8925 0.78343 2.01652
thorax -2.24875 2.25584 -3.01288
lowerneck -3.21956 -2.21273 4.21157
upperneck 44.1784 -0.276547 -2.37429
head 16.4434 1.4102 -1.53819
rclavicle 6.32135e-014 8.5875e-014
rhumerus 14.0305 23.8548 -57.253
rradius 32.7831
rwrist 10.0292
rhand 7.03234 30.4944
rfingers 7.12502
rthumb 32.3065 3.35045
lclavicle 6.32135e-014 8.5875e-014
lhumerus 15.859 -50.6178 39.0872
lradius 31.7058
lwrist 22.8472
lhand -14.0434 -25.8718
lfingers 7.12502
lthumb 12.0872 3.75906
rfemur -33.8516 -32.8378 32.7434
rtibia 59.0485
rfoot 3.36234 -17.894
rtoes 7.03735
lfemur -48.9898 20.2918 10.4511
ltibia 86.9461
lfoot 17.9146 -10.4789
ltoes 5.00154
282
root -4.36916 1.7943 -1.42034 -83.7072 74.0162 -2.89394
lowerback 46.9967 -5.95853 10.4098
upperback 16.0468 0.431741 2.04513
thorax -1.90634 2.05794 -2.83844
lowerneck -3.50971 -2.26521 4.26975
upperneck 44.4189 -0.299781 -2.53852
head 16.6495 1.3971 -1.63008
rclavicle -5.96354e-015 6.36111e-014
rhumerus 13.6973 23.379 -57.4941
rradius 32.7877
rwrist 10.2864
rhand 6.94652 30.3678
rfingers 7.12502
rthumb 32.2248 3.20722
lclavicle -5.96354e-015 6.36111e-014
lhumerus 15.5936 -51.1762 39.1246
lradius 32.0243
lwrist 23.1779
lhand -13.8561 -26.0086
lfingers 7.12502
lthumb 12.2679 3.61153
rfemur -35.4135 -33.2597 32.7135
rtibia 59.2902
rfoot 3.20302 -17.8443
rtoes 7.41426
lfemur -50.5717 20.0928 9.24997
ltibia 86.9158
lfoot 18.2673 -10.4972
ltoes 3.90142
283
root -4.36124 1.80709 -1.41851 -84.0944 74.1783 -3.85736
lowerback 46.6628 -5.85363 10.2436
upperback 16.0534 0.422066 2.14591
thorax -1.86017 2.02689 -2.66331
lowerneck -3.59831 -2.26901 4.34033
upperneck 44.5388 -0.278577 -2.60431
head 16.7414 1.41569 -1.67114
rclavicle -1.15295e-014 1.74931e-014
rhumerus 13.2206 23.4266 -57.4442
rradius 33.0612
rwrist 9.94134
rhand 6.93787 30.1912
rfingers 7.12502
rthumb 32.2166 3.02888
lclavicle -1.15295e-014 1.74931e-014
lhumerus 15.5067 -52.1065 38.8965
lradius 32.481
lwrist 23.7719
lhand -13.9095 -25.777
lfingers 7.12502
lthumb 12.2164 3.8462
rfemur -36.354 -33.4699 32.9414
rtibia 59.8285
rfoot 3.36048 -17.5833
rtoes 5.0361
lfemur -51.2488 20.0925 8.91708
ltibia 86.7584
lfoot 18.6359 -10.0571
ltoes 6.49522
284
root -4.34666 1.82377 -1.41879 -83.0819 73.9378 -3.12076
lowerback 46.7848 -5.66409 10.2494
upperback 16.0105 0.677223 2.18304
thorax -1.90868 2.14471 -2.71739
lowerneck -3.53127 -2.30395 4.39427
upperneck 44.5497 -0.341391 -2.56829
head 16.7277 1.40536 -1.67239
rclavicle -1.61016e-014 0
rhumerus 12.514 23.9877 -57.1185
rradius 33.628
rwrist 8.91052
rhand 6.74051 30.0143
rfingers 7.12502
rthumb 32.0287 2.81408
lclavicle -1.61016e-014 0
lhumerus 15.5883 -53.4173 38.2742
lradius 33.1785
lwrist 24.4591
lhand -13.9425 -25.5601
lfingers 7.12502
lthumb 12.1846 4.06501
rfemur -36.7495 -33.1611 33.3197
rtibia 60.3171
rfoot 3.18428 -17.4254
rtoes 4.35325
lfemur -51.3249 20.5195 9.26621
ltibia 86.6769
lfoot 16.1174 -6.72868
ltoes 23.657
285
root -4.41446 1.91461 -1.37917 -66.2183 79.3744 9.87682
lowerback 41.3753 -2.44137 3.98399
upperback 16.8126 0.980465 1.59166
thorax -1.03104 1.83985 -0.714928
lowerneck -3.61453 -2.33089 4.34262
upperneck 44.7169 -0.362553 -2.54877
head 16.8457 1.39874 -1.65862
rclavicle -9.93923e-015 1.35174e-014
rhumerus 11.9213 24.3899 -56.9643
rradius 34.0944
rwrist 8.16208
rhand 6.54158 29.7781
rfingers 7.12502
rthumb 31.8392 2.54001
lclavicle -9.93923e-015 1.35174e-014
lhumerus 15.2051 -54.2869 38.1675
lradius 33.7676
lwrist 24.9513
lhand -13.658 -25.4598
lfingers 7.12502
lthumb 12.4588 4.1488
rfemur -42.4879 -30.4409 29.6007
rtibia 61.4451
rfoot 3.47848 -17.7402
rtoes 3.60885
lfemur -53.4641 22.0343 1.51416
ltibia 85.6275
lfoot 15.3097 -5.08483
ltoes 25.2302
286
root -4.43799 1.99454 -1.38665 -54.0586 79.8983 19.5164
lowerback 38.1831 -1.43217 2.62117
upperback 16.8496 1.35457 1.18857
thorax -0.211812 1.87797 -0.557261
lowerneck -3.68662 -2.34759 4.31954
upperneck 44.8463 -0.406575 -2.46577
head 16.939 1.39209 -1.62427
rclavicle 8.15017e-015 4.77083e-015
rhumerus 11.3363 24.4701 -57.0951
rradius 34.4848
rwrist 7.75125
rhand 6.30793 29.5448
rfingers 7.12502
rthumb 31.6167 2.26269
lclavicle 8.15017e-015 4.77083e-015
lhumerus 14.7757 -55.0723 38.1527
lradius 34.3183
lwrist 25.4284
lhand -13.6346 -25.2491
lfingers 7.12502
lthumb 12.4814 4.3582
rfemur -45.7049 -28.8963 29.5917
rtibia 61.9591
rfoot 4.07126 -17.3902
rtoes 1.6316
lfemur -55.0732 23.6712 -0.629718
ltibia 85.2947
lfoot 15.003 -4.70658
ltoes 26.3789
287
root -4.41832 1.98747 -1.38233 -53.7818 80.0982 20.0441
lowerback 38.9708 -1.3964 2.32428
upperback 16.7787 1.36792 1.08197
thorax -0.381621 1.88875 -0.514642
lowerneck -3.59057 -2.36705 4.3286
upperneck 44.7516 -0.461107 -2.4174
head 16.8566 1.36911 -1.61115
rclavicle 9.74045e-015 7.95139e-016
rhumerus 10.7631 24.4744 -57.2525
rradius 34.8768
rwrist 7.29421
rhand 6.0568 29.4554
rfingers 7.12502
rthumb 31.3774 2.1266
lclavicle 9.74045e-015 7.95139e-016
lhumerus 14.6442 -56.1697 37.71
lradius 35.0699
lwrist 26.1306
lhand -14.0265 -25.0886
lfingers 7.12502
lthumb 12.1036 4.54136
rfemur -45.3342 -28.8358 29.0469
rtibia 62.4274
rfoot 3.45607 -17.2607
rtoes 4.2972
lfemur -54.8121 23.6729 -0.702694
ltibia 85.1484
lfoot 15.1927 -5.10792
ltoes 25.5465
288
root -4.40475 1.98343 -1.37769 -53.807 80.0999 19.8512
lowerback 39.1918 -1.31398 2.13784
upperback 16.8182 1.43176 1.11768
thorax -0.408593 1.91493 -0.403883
lowerneck -3.51827 -2.41086 4.34114
upperneck 44.5934 -0.496985 -2.54074
head 16.7413 1.32711 -1.67472
rclavicle 5.96354e-015 1.59028e-015
rhumerus 10.2852 24.4191 -57.3491
rradius 35.2533
rwrist 6.85766
rhand 5.79717 29.4006
rfingers 7.12502
rthumb 31.13 2.02396
lclavicle 5.96354e-015 1.59028e-015
lhumerus 14.4767 -57.1597 37.3667
lradius 35.8049
lwrist 26.8005
lhand -14.4863 -25.0206
lfingers 7.12502
lthumb 11.6602 4.63495
rfemur -45.4427 -28.6905 29.003
rtibia 62.633
rfoot 3.28024 -17.1489
rtoes 5.58294
lfemur -54.9637 23.7384 -0.645654
ltibia 85.1002
lfoot 15.2949 -5.23109
ltoes 25.5464
289
root -4.39104 1.99016 -1.37663 -54.8127 79.9171 18.199
lowerback 38.8923 -1.31097 2.25509
upperback 16.8124 1.45621 1.2636
thorax -0.324971 1.91654 -0.314946
lowerneck -3.57795 -2.44414 4.38784
upperneck 44.5178 -0.487116 -2.76266
head 16.7084 1.30077 -1.78445
rclavicle 6.75868e-015 -2.22639e-014
rhumerus 9.77472 24.3858 -57.4129
rradius 35.7842
rwrist 6.51481
rhand 5.63488 29.2366
rfingers 7.12502
rthumb 30.9753 1.83042
lclavicle 6.75868e-015 -2.22639e-014
lhumerus 14.03 -57.9557 37.4482
lradius 36.4844
lwrist 27.4532
lhand -14.6674 -24.865
lfingers 7.12502
lthumb 11.4855 4.80034
rfemur -46.2482 -28.5763 29.541
rtibia 62.7609
rfoot 3.60863 -17.1711
rtoes 4.539
lfemur -55.6431 23.806 -0.454029
ltibia 85.0967
lfoot 15.9468 -5.31371
ltoes 25.6041
290
root -4.37521 2.00434 -1.37969 -56.6637 79.6374 15.2213
lowerback 37.9571 -1.44728 2.8288
upperback 16.8325 1.3984 1.39603
thorax -0.160363 1.89107 -0.459704
lowerneck -3.68269 -2.44964 4.46439
upperneck 44.5631 -0.484951 -2.83165
head 16.7594 1.30482 -1.83171
rclavicle 2.74323e-014 9.85972e-014
rhumerus 9.10532 24.4208 -57.4872
rradius 36.4146
rwrist 6.06669
rhand 5.559 29.0415
rfingers 7.12502
rthumb 30.903 1.62157
lclavicle 2.74323e-014 9.85972e-014
lhumerus 13.7763 -59.1171 37.1411
lradius 37.4347
lwrist 28.4329
lhand -14.7172 -24.5096
lfingers 7.12502
lthumb 11.4375 5.15846
rfemur -47.6433 -28.5954 30.6497
rtibia 62.9053
rfoot 4.02029 -17.232
rtoes 2.43002
lfemur -57.1158 24.0077 -0.317945
ltibia 85.2936
lfoot 16.9964 -5.63694
ltoes 23.248
291
root -4.36102 1.99718 -1.38111 -57.8421 79.9752 13.7682
lowerback 38.181 -1.51219 2.70077
upperback 16.7823 1.29784 1.45394
thorax -0.290725 1.82978 -0.304884
lowerneck -3.62691 -2.51352 4.3225
upperneck 44.5891 -0.548265 -2.81369
head 16.7577 1.25856 -1.80604
rclavicle 1.78906e-015 -4.05521e-014
rhumerus 8.39035 24.5703 -57.4655
rradius 37.0535
rwrist 5.5334
rhand 5.20911 28.8973
rfingers 7.12502
rthumb 30.5694 1.41465
lclavicle 1.78906e-015 -4.05521e-014
lhumerus 13.3238 -60.2926 37.0212
lradius 38.4721
lwrist 29.2773
lhand -14.9054 -24.0602
lfingers 7.12502
lthumb 11.256 5.61782
rfemur -48.1723 -28.9688 30.6283
rtibia 63.1688
rfoot 4.47068 -17.0253
rtoes -0.705458
lfemur -57.6622 23.7753 -0.700356
ltibia 85.3778
lfoot 19.6114 -8.8422
ltoes 5.83487
